<svg width="49" height="61" viewBox="0 0 49 61" fill="none" xmlns="http://www.w3.org/2000/svg">
<g clip-path="url(#clip0_6653_17289)">
<path d="M41.5986 41.1558C38.8948 40.762 38.3697 39.7151 37.8989 36.7252L36.3237 27H32.6763L31.1011 36.7252C30.6283 39.7131 30.1032 40.762 27.4014 41.1558L20 42.2308V45.7692L27.4014 46.8442C30.1052 47.238 30.6303 48.2849 31.1011 51.2748L32.6763 61H36.3237L37.8989 51.2748C38.3717 48.2869 38.8968 47.238 41.5986 46.8442L49 45.7692V42.2308L41.5986 41.1558Z" fill="url(#paint0_linear_6653_17289)"/>
<path d="M11.9165 7.91059C10.4247 7.6905 10.135 7.10549 9.87527 5.43467L9.00617 0H6.99383L6.12473 5.43467C5.86389 7.10437 5.57419 7.6905 4.08352 7.91059L0 8.51132V10.4887L4.08352 11.0894C5.5753 11.3095 5.865 11.8945 6.12473 13.5653L6.99383 19H9.00617L9.87527 13.5653C10.1361 11.8956 10.4258 11.3095 11.9165 11.0894L16 10.4887V8.51132L11.9165 7.91059Z" fill="url(#paint1_linear_6653_17289)"/>
</g>
<defs>
<linearGradient id="paint0_linear_6653_17289" x1="25.6612" y1="32.2785" x2="43.3113" y2="55.7422" gradientUnits="userSpaceOnUse">
<stop stop-color="#FDF7EE"/>
<stop offset="0.19" stop-color="#FEC261"/>
<stop offset="0.21" stop-color="#FDBE5E"/>
<stop offset="0.45" stop-color="#FC9535"/>
<stop offset="0.68" stop-color="#FB7718"/>
<stop offset="0.86" stop-color="#FB6506"/>
<stop offset="1" stop-color="#FB5F00"/>
</linearGradient>
<linearGradient id="paint1_linear_6653_17289" x1="3.12341" y1="2.94977" x2="13.021" y2="15.9402" gradientUnits="userSpaceOnUse">
<stop stop-color="#FDF7EE"/>
<stop offset="0.19" stop-color="#FEC261"/>
<stop offset="0.21" stop-color="#FDBE5E"/>
<stop offset="0.45" stop-color="#FC9535"/>
<stop offset="0.68" stop-color="#FB7718"/>
<stop offset="0.86" stop-color="#FB6506"/>
<stop offset="1" stop-color="#FB5F00"/>
</linearGradient>
<clipPath id="clip0_6653_17289">
<rect width="49" height="61" fill="white"/>
</clipPath>
</defs>
</svg>
